<svg width="1200" height="675" viewBox="0 0 1200 675" fill="none" xmlns="http://www.w3.org/2000/svg">
  <rect width="1200" height="675" fill="#F8FAFC"/>
  <circle cx="965" cy="130" r="230" fill="#8B5CF6" opacity=".18"/>
  <circle cx="190" cy="570" r="240" fill="#2563EB" opacity=".14"/>
  <rect x="112" y="86" width="976" height="504" rx="38" fill="#FFFFFF" stroke="#E2E8F0" stroke-width="2"/>
  <rect x="164" y="138" width="286" height="400" rx="28" fill="#EEF2FF"/>
  <rect x="204" y="182" width="206" height="28" rx="14" fill="#312E81"/>
  <rect x="204" y="244" width="172" height="16" rx="8" fill="#818CF8"/>
  <rect x="204" y="284" width="194" height="16" rx="8" fill="#A5B4FC"/>
  <rect x="204" y="324" width="150" height="16" rx="8" fill="#A5B4FC"/>
  <rect x="204" y="384" width="206" height="82" rx="18" fill="#FFFFFF" stroke="#C7D2FE"/>
  <path d="M513 338H438" stroke="#94A3B8" stroke-width="14" stroke-linecap="round"/>
  <path d="M501 298L541 338L501 378" stroke="#94A3B8" stroke-width="14" stroke-linecap="round" stroke-linejoin="round"/>
  <rect x="586" y="138" width="450" height="400" rx="28" fill="#0F172A"/>
  <rect x="628" y="188" width="154" height="22" rx="11" fill="#E0E7FF"/>
  <rect x="628" y="246" width="344" height="42" rx="14" fill="#1E293B"/>
  <rect x="654" y="260" width="84" height="14" rx="7" fill="#22C55E"/>
  <rect x="764" y="260" width="156" height="14" rx="7" fill="#64748B"/>
  <rect x="628" y="316" width="344" height="42" rx="14" fill="#1E293B"/>
  <rect x="654" y="330" width="118" height="14" rx="7" fill="#38BDF8"/>
  <rect x="798" y="330" width="96" height="14" rx="7" fill="#64748B"/>
  <rect x="628" y="386" width="344" height="86" rx="18" fill="#1E293B"/>
  <path d="M666 440L704 410L746 430L804 394L866 438" stroke="#A78BFA" stroke-width="10" stroke-linecap="round" stroke-linejoin="round"/>
  <text x="164" y="612" fill="#0A2B4E" font-family="Arial, sans-serif" font-size="32" font-weight="700">AI 简历解析工具</text>
  <text x="164" y="650" fill="#64748B" font-family="Arial, sans-serif" font-size="20">PDF 字段抽取 · 私有化部署 · 98% 准确率</text>
</svg>
